<?xml version="1.0" standalone="no"?>
<!DOCTYPE svg PUBLIC "-//W3C//DTD SVG 20010904//EN"
 "http://www.w3.org/TR/2001/REC-SVG-20010904/DTD/svg10.dtd">
<svg version="1.0" xmlns="http://www.w3.org/2000/svg"
 width="200.000000pt" height="200.000000pt" viewBox="0 0 200.000000 200.000000"
 preserveAspectRatio="xMidYMid meet">
<metadata>
Created by potrace 1.14, written by Peter Selinger 2001-2017
</metadata>
<g transform="translate(0.000000,200.000000) scale(0.100000,-0.100000)"
fill="#000000" stroke="none">
<path d="M413 1667 c-37 -37 -58 -105 -48 -156 4 -20 6 -38 6 -41 -1 -3 -61
-6 -133 -6 -73 -1 -157 -3 -185 -3 l-53 -1 0 -50 0 -51 94 2 c52 1 99 -2 105
-5 10 -6 6 -70 -5 -88 -8 -12 -43 4 -59 28 -19 29 -34 30 -69 3 -33 -26 -33
-41 4 -96 17 -24 30 -47 30 -50 0 -8 135 -187 152 -201 11 -9 22 -6 51 14 45
30 46 48 7 82 -17 15 -30 31 -30 37 0 5 -14 23 -30 39 -24 22 -28 31 -19 42 6
8 16 11 22 7 6 -3 7 -1 3 5 -4 7 -2 12 4 12 5 0 19 15 30 33 l20 32 0 -37 c0
-45 11 -52 72 -49 34 2 48 -1 49 -11 1 -7 2 -57 3 -111 1 -109 6 -117 64 -108
l37 6 2 55 c1 30 2 124 2 208 l1 153 53 -3 52 -3 0 -55 c0 -44 4 -55 18 -58
21 -4 23 -22 1 -22 -10 0 -14 -7 -12 -22 2 -19 10 -23 38 -24 48 0 60 5 60 27
0 15 -7 19 -32 19 -17 0 -28 3 -24 7 4 5 17 8 29 8 20 0 22 6 25 61 3 59 4 62
32 68 28 5 30 9 30 50 0 41 -2 45 -29 51 -24 5 -32 15 -45 53 -15 42 -69 122
-88 130 -5 2 -15 10 -23 18 -19 19 -46 26 -120 30 -56 4 -62 2 -92 -29z m174
-28 c52 -25 95 -81 118 -154 16 -51 26 -61 58 -56 4 0 7 -6 7 -14 0 -10 -10
-15 -30 -15 l-30 0 0 -60 c0 -33 -4 -60 -10 -60 -6 0 -10 27 -10 60 l0 60 -95
0 -95 0 0 -210 c0 -133 -4 -210 -10 -210 -10 0 -12 25 -12 144 0 84 -2 86 -63
86 -30 0 -57 5 -60 10 -6 10 14 13 77 10 32 -1 37 2 42 27 3 15 5 54 5 85 l0
57 -89 3 c-126 4 -120 8 -120 -71 0 -80 -19 -113 -75 -131 -19 -6 -35 -15 -35
-19 0 -5 27 -44 60 -89 60 -80 67 -92 52 -92 -18 0 -189 246 -178 257 3 3 17
-4 32 -16 37 -29 78 -27 103 5 16 21 21 41 21 90 l0 63 -102 3 c-62 2 -102 7
-100 13 1 6 69 11 175 12 94 1 184 2 199 2 l27 1 -25 48 c-34 62 -28 115 16
155 37 33 86 36 147 6z m-154 -300 c12 -45 -5 -61 -70 -64 l-61 -3 4 31 c8 55
10 57 68 57 46 0 54 -3 59 -21z"/>
<path d="M450 1612 c-36 -36 -38 -68 -9 -128 28 -59 51 -64 241 -55 14 1 15 6
6 39 -26 95 -90 161 -164 170 -38 4 -47 1 -74 -26z m103 -23 c32 -17 77 -70
77 -91 0 -31 -4 -33 -62 -33 -65 1 -93 19 -103 67 -12 53 36 84 88 57z"/>
<path d="M1128 1684 c-35 -18 -35 -35 -3 -70 14 -15 25 -30 25 -33 0 -4 23
-30 50 -59 28 -29 50 -55 50 -57 0 -3 -9 -5 -19 -5 -11 0 -57 36 -102 80 -46
44 -86 80 -91 80 -12 0 -37 -55 -35 -78 0 -11 4 -20 7 -19 9 3 100 -46 95 -51
-3 -3 -153 -11 -231 -12 -14 0 -24 -54 -14 -71 4 -6 23 -10 41 -9 19 1 101 2
182 1 147 -1 148 -1 145 -23 -3 -20 -9 -22 -78 -23 -41 0 -85 -4 -96 -8 -46
-16 -35 -94 22 -157 48 -52 82 -65 138 -51 25 6 47 11 50 11 14 0 4 -59 -13
-78 -26 -31 -69 -28 -124 9 -51 34 -140 127 -132 139 2 4 -4 15 -14 24 -17 15
-20 15 -47 -6 -16 -12 -31 -23 -33 -25 -11 -8 27 -67 74 -116 81 -86 145 -120
220 -121 56 0 80 5 112 22 70 39 88 187 27 227 -21 13 -33 14 -83 4 -55 -12
-60 -11 -90 10 -47 34 -30 44 73 40 l91 -4 3 63 3 63 152 -3 152 -3 0 -108 c0
-104 -1 -109 -25 -127 -46 -35 -77 -25 -99 34 -10 24 -8 31 18 57 17 17 40 29
55 29 28 0 32 13 16 54 -8 21 -16 26 -42 26 -116 -2 -189 -137 -127 -237 31
-50 70 -66 146 -60 l64 5 -2 -37 c-3 -72 -4 -72 49 -69 l47 3 2 85 c2 145 3
154 17 173 19 24 69 32 85 13 27 -32 9 -102 -41 -161 -19 -23 -10 -43 32 -65
22 -12 26 -10 58 26 75 85 92 191 40 247 -36 39 -97 58 -143 46 -20 -6 -38 -9
-40 -7 -5 5 -8 30 -6 56 1 22 3 22 131 22 l130 0 0 40 c0 37 -2 40 -27 41 -16
0 -162 0 -326 0 -300 -1 -337 3 -337 35 0 8 -4 13 -8 10 -4 -2 -26 30 -47 72
-22 42 -43 79 -46 82 -3 3 -8 13 -12 23 -8 21 -33 21 -69 1z"/>
<path d="M650 1135 c0 -14 5 -25 12 -25 9 0 9 -3 0 -12 -7 -7 -12 -41 -12 -84
0 -79 6 -85 65 -74 29 5 30 6 33 73 2 38 -2 74 -7 81 -7 9 -7 16 1 24 22 22 1
42 -47 42 -41 0 -45 -2 -45 -25z m70 -29 c0 -2 -9 -6 -20 -9 -11 -3 -20 -1
-20 4 0 5 9 9 20 9 11 0 20 -2 20 -4z m-10 -91 c0 -19 -4 -35 -10 -35 -5 0
-10 16 -10 35 0 19 5 35 10 35 6 0 10 -16 10 -35z"/>
<path d="M219 799 c-62 -9 -115 -33 -144 -66 -40 -45 -42 -48 -49 -71 -4 -12
-12 -22 -17 -22 -5 0 -9 -73 -9 -175 l0 -175 235 0 236 0 -3 63 -3 62 -120 5
c-66 3 -128 10 -138 14 -69 32 -95 116 -55 175 12 19 27 34 32 32 5 -1 12 3
17 10 5 9 46 14 138 17 l131 4 1 47 c1 47 -1 74 -6 79 -6 6 -203 7 -246 1z
m201 -64 c0 -12 -18 -15 -102 -15 -124 0 -169 -18 -211 -82 -52 -81 -31 -184
51 -242 39 -27 50 -30 152 -34 147 -6 143 -25 -4 -23 -85 2 -117 6 -146 21
-77 39 -116 115 -107 205 8 74 43 126 108 159 47 23 65 26 156 26 85 0 103 -3
103 -15z"/>
<path d="M515 802 c-18 -2 -21 -10 -20 -62 0 -32 3 -61 6 -64 3 -3 61 -7 130
-8 137 -3 159 -12 191 -73 21 -42 10 -107 -24 -138 -31 -27 -39 -30 -110 -35
-53 -3 -58 -2 -58 17 0 16 -6 21 -25 21 -30 0 -34 15 -4 17 29 3 35 11 22 32
-8 13 -8 22 -1 29 11 11 1 35 -12 27 -4 -3 -19 -1 -32 4 -21 9 -19 10 14 10
34 1 36 3 34 29 -3 24 -8 28 -47 32 -50 6 -79 2 -79 -11 0 -5 25 -9 57 -9 67
0 65 -10 -3 -14 -50 -4 -76 -26 -29 -26 15 0 24 -4 20 -10 -4 -6 -11 -8 -16
-4 -16 10 -39 -4 -33 -20 3 -8 13 -17 22 -19 15 -4 15 -5 1 -6 -9 0 -19 -10
-22 -21 -4 -16 0 -20 21 -21 15 -1 33 -1 40 0 6 1 12 -3 12 -10 0 -7 -10 -9
-24 -7 -41 8 -48 -4 -48 -88 l0 -79 138 -3 c164 -3 199 6 261 71 74 78 97 200
53 287 -34 67 -94 126 -143 139 -38 11 -244 20 -292 13z"/>
<path d="M1154 786 c-55 -20 -102 -64 -131 -123 -27 -55 -28 -66 -31 -215 l-4
-158 66 0 c56 0 66 3 67 18 2 24 5 64 7 85 1 11 9 17 20 15 14 -3 17 6 20 60
3 57 1 64 -18 69 -24 6 -27 45 -5 63 8 7 15 18 15 24 0 15 56 46 85 46 42 0
93 -29 111 -62 13 -26 17 -62 18 -173 l2 -140 68 -3 68 -3 -4 163 c-3 147 -6
167 -27 208 -48 93 -128 140 -231 139 -36 -1 -79 -6 -96 -13z"/>
<path d="M1690 784 c-154 -67 -206 -252 -112 -397 14 -20 48 -51 77 -67 52
-30 55 -30 199 -30 l146 0 0 65 0 65 -121 0 c-133 0 -162 9 -193 61 -26 45
-28 70 -6 117 29 61 61 72 205 72 l115 0 0 65 0 65 -137 0 c-100 -1 -148 -5
-173 -16z"/>
<path d="M1187 533 c-4 -3 -7 -32 -7 -64 l0 -58 43 1 c23 0 45 5 49 12 6 8 8
7 8 -1 0 -20 28 -15 33 5 4 16 5 16 6 0 0 -10 6 -18 11 -18 6 0 10 27 10 61 0
48 -3 60 -14 56 -7 -3 -19 0 -26 6 -10 9 -14 9 -17 -1 -4 -10 -8 -10 -20 -1
-12 10 -17 10 -25 -2 -7 -11 -11 -11 -15 -1 -5 13 -25 16 -36 5z m40 -70 c-3
-10 -5 -4 -5 12 0 17 2 24 5 18 2 -7 2 -21 0 -30z"/>
</g>
</svg>
